nColumns=19
nRows=48
DataType=double
version=3
OpenSimVersion=4.1
endheader
time	ground_force_1_vx	ground_force_1_vy	ground_force_1_vz	ground_force_1_px	ground_force_1_py	ground_force_1_pz	ground_force_1_mx	ground_force_1_my	ground_force_1_mz	ground_force_2_vx	ground_force_2_vy	ground_force_2_vz	ground_force_2_px	ground_force_2_py	ground_force_2_pz	ground_force_2_mx	ground_force_2_my	ground_force_2_mz
2.975	91.1649	719.663	-33.2615	1.19318	0	-0.424812	0	1.05029	0	-6.00231	5.17836	-0.614303	1.63775	0	-0.577529	0	2.13412e-05	0
2.98	94.2785	717.951	-32.9191	1.19482	0	-0.426613	0	0.815968	0	-10.376	9.84228	-1.51759	1.64011	0	-0.577216	0	0.000112429	0
2.985	97.3172	714.385	-32.3728	1.19655	0	-0.428512	0	0.62007	0	-16.7518	17.6966	-3.33373	1.64179	0	-0.577057	0	0.000721873	0
2.99	100.388	708.738	-31.6726	1.19839	0	-0.430506	0	0.420917	0	-19.1369	28.9466	-5.66002	1.64298	0	-0.577252	0	0.00947454	0
2.995	103.308	701.016	-30.4707	1.2003	0	-0.432532	0	0.179902	0	-7.75459	45.9383	-5.36016	1.64474	0	-0.578006	0	0.0378771	0
3	106.183	691.361	-29.0385	1.20225	0	-0.434523	0	-0.17437	0	0.118124	81.5503	-6.15053	1.64757	0	-0.579064	0	0.132795	0
3.005	108.941	679.761	-27.3869	1.2042	0	-0.436444	0	-0.66851	0	-0.263856	141.304	-7.68842	1.6511	0	-0.580287	0	0.422169	0
3.01	111.388	665.676	-25.4591	1.20618	0	-0.438262	0	-1.19146	0	-5.92634	207.577	-9.16906	1.65601	0	-0.581549	0	1.13637	0
3.015	113.317	648.635	-23.4608	1.20821	0	-0.439956	0	-1.64511	0	-7.16516	263.743	-11.3796	1.66424	0	-0.582518	0	2.71006	0
3.02	114.743	628.24	-21.5119	1.2103	0	-0.441475	0	-1.99405	0	-12.9077	313.617	-14.618	1.67894	0	-0.583291	0	5.38599	0
3.025	115.372	604.196	-19.6686	1.21244	0	-0.442724	0	-2.23961	0	-22.6209	354.235	-14.2043	1.69731	0	-0.583202	0	7.57336	0
3.03	114.725	575.943	-17.8792	1.21466	0	-0.443636	0	-2.41261	0	-30.7073	379.29	-13.3372	1.71777	0	-0.581541	0	8.45056	0
3.035	113.211	542.043	-16.0717	1.21706	0	-0.444233	0	-2.51109	0	-41.7893	399.995	-13.269	1.73967	0	-0.578002	0	8.38707	0
3.04	111.301	502.434	-14.334	1.21986	0	-0.444597	0	-2.4866	0	-51.9074	409.873	-10.1092	1.75854	0	-0.574527	0	7.89377	0
3.045	109.269	457.757	-12.2628	1.22324	0	-0.444767	0	-2.31024	0	-59.1981	413.994	-6.41279	1.77473	0	-0.571668	0	7.65902	0
3.05	105.104	404.873	-10.0413	1.22752	0	-0.444656	0	-2.00034	0	-66.8519	417.77	-2.01696	1.78727	0	-0.569794	0	7.56814	0
3.055	95.9502	335.531	-8.4987	1.23386	0	-0.444573	0	-1.48046	0	-73.3835	423.804	3.39691	1.79616	0	-0.569072	0	7.4876	0
3.06	85.1387	256.268	-6.6568	1.24361	0	-0.445043	0	-0.763384	0	-79.7101	429.783	9.04186	1.80226	0	-0.569284	0	7.3292	0
3.065	78.6023	201.485	-4.83258	1.25212	0	-0.447387	0	-0.207452	0	-85.4587	436.004	13.833	1.80651	0	-0.57017	0	7.12779	0
3.07	74.1557	181.028	-4.10967	1.2538	0	-0.45062	0	-0.022681	0	-90.9999	443.14	18.576	1.80928	0	-0.571656	0	6.75676	0
3.075	66.8968	173.481	-3.5688	1.25445	0	-0.451154	0	0.00950844	0	-95.3506	452.241	22.8693	1.81088	0	-0.573661	0	6.20278	0
3.08	58.1134	171.395	-2.63845	1.2549	0	-0.451123	0	0.00811428	0	-98.7428	462.73	26.3889	1.81169	0	-0.575966	0	5.60762	0
3.085	49.3262	170.765	-2.30693	1.25546	0	-0.451112	0	0.00674531	0	-100.914	474.541	29.2001	1.81204	0	-0.578403	0	5.10013	0
3.09	41.12	170.096	-2.35045	1.25613	0	-0.451103	0	0.00475505	0	-101.688	488.099	31.9465	1.81207	0	-0.58092	0	4.65305	0
3.095	32.4939	166.252	-1.9827	1.25691	0	-0.451098	0	0.00370946	0	-101.251	503.286	34.4098	1.81189	0	-0.583489	0	4.22088	0
3.1	25.7833	156.237	-2.07324	1.25784	0	-0.451087	0	0.000649625	0	-99.8669	519.584	36.7304	1.81155	0	-0.586064	0	3.80734	0
3.105	20.2394	138.796	-2.14754	1.25893	0	-0.451111	0	1.04264e-05	0	-97.8386	536.627	39.1092	1.81113	0	-0.588559	0	3.38875	0
3.11	15.5669	115.18	-2.16926	1.26017	0	-0.451155	0	3.15706e-08	0	-95.394	553.731	41.46	1.81073	0	-0.590863	0	2.92215	0
3.115	9.485	86.822	-2.30878	1.26149	0	-0.451226	0	1.88782e-11	0	-92.69	570.354	43.3726	1.81038	0	-0.592956	0	2.42031	0
3.12	0.645328	56.2014	-2.39164	1.26284	0	-0.451331	0	2.66454e-15	0	-89.8182	586.521	45.4646	1.81002	0	-0.594865	0	1.88327	0
3.125	-6.569	27.8128	-0.488786	1.26425	0	-0.451368	0	1.11022e-16	0	-87.0836	601.77	47.267	1.80966	0	-0.596602	0	1.33222	0
3.13	-5.37745	5.98707	0.648179	1.26598	0	-0.451387	0	0	0	-84.5308	615.122	48.7645	1.8093	0	-0.598173	0	0.806199	0
3.135	0.0757491	-0.0724235	-0.00958755	1.27021	0	-0.451815	0	0	0	-81.7606	626.415	50.3222	1.80894	0	-0.599619	0	0.343075	0
3.14	0.0188465	-0.0159214	-0.00211139	1.27607	0	-0.452411	0	-8.67362e-19	0	-79.1904	635.313	51.6394	1.80864	0	-0.600896	0	-0.00405887	0
3.145	0.105709	-0.0824981	-0.0111594	1.28312	0	-0.453085	0	-6.93889e-18	0	-76.8663	641.603	52.3992	1.80851	0	-0.601941	0	-0.196511	0
3.15	0.0791645	-0.0566786	-0.00783925	1.29128	0	-0.453831	0	1.04083e-17	0	-74.4473	645.915	53.1514	1.80854	0	-0.602784	0	-0.29176	0
3.155	0.0428248	-0.0280063	-0.00381196	1.30079	0	-0.454631	0	3.1225e-17	0	-72.1001	648.74	53.6611	1.80869	0	-0.603474	0	-0.3408	0
3.16	0.0237107	-0.0143688	-0.00194571	1.31161	0	-0.455485	0	1.17528e-16	0	-69.8707	650.103	53.8946	1.80896	0	-0.604039	0	-0.348545	0
3.165	-0.00109961	0.000625688	8.61829e-05	1.32351	0	-0.456399	0	9.27616e-16	0	-67.7002	650.088	53.9695	1.80933	0	-0.604492	0	-0.324399	0
3.17	-0.0306361	0.0164337	0.00230848	1.33644	0	-0.457364	0	7.09242e-15	0	-65.6053	648.753	53.9261	1.80982	0	-0.604834	0	-0.286372	0
3.175	-0.0384221	0.0195129	0.00277296	1.35037	0	-0.458366	0	4.94314e-14	0	-63.5661	646.083	53.7001	1.8104	0	-0.60508	0	-0.236259	0
3.18	-0.0343907	0.0166368	0.00238673	1.36516	0	-0.459399	0	7.58811e-14	0	-61.5545	642.09	53.3937	1.81106	0	-0.605242	0	-0.171843	0
3.185	-0.0282263	0.0130831	0.00189983	1.38068	0	-0.46046	0	-4.24229e-13	0	-59.5476	636.904	53.0084	1.81179	0	-0.60533	0	-0.0883672	0
3.19	-0.0223704	0.00997502	0.00146704	1.39685	0	-0.461543	0	-3.05996e-13	0	-57.5188	630.638	52.6019	1.81257	0	-0.605353	0	0.011619	0
3.195	-0.0180767	0.0077862	0.0011588	1.41356	0	-0.462643	0	-1.53313e-13	0	-55.4609	623.49	52.1944	1.8134	0	-0.605319	0	0.123386	0
3.2	-0.0152068	0.00635067	0.000955163	1.43071	0	-0.463754	0	-5.21655e-14	0	-53.4043	615.671	51.8269	1.81426	0	-0.605229	0	0.240108	0
3.205	-0.0135537	0.0055069	0.000835988	1.44824	0	-0.464872	0	1.1576e-14	0	-51.3587	607.427	51.4572	1.81515	0	-0.605086	0	0.357605	0
3.21	-0.0128488	0.00509301	0.000778915	1.46607	0	-0.46599	0	6.09283e-14	0	-49.3484	598.979	51.0868	1.81605	0	-0.604889	0	0.470824	0
